# xmcd CD database file
#
# Track frame offsets:
#	150
#	24587
#	40862
#	60887
#	80687
#	101762
#	117737
#	134762
#	155162
#	172487
#	192362
#	214037
#	236762
#	253937
#
# Disc length: 3653 seconds
#
# Revision: 0
# Processed by: cddbd v1.5.2PL0 Copyright (c) Steve Scherf et al.
# Submitted via: CDex 1.51
#
DISCID=d80e430e
DTITLE=Various Artist - האוסף של יוסף
DYEAR=1990
DGENRE=90's
TTITLE0=Maxi Priest - Close To You (Extended Version)
TTITLE1=DNA - Tom's Diner (feat. Suzanne Vega) (7" A)
TTITLE2=Sting - Englishman In New York (The Ben Liebrand Mix Edit)
TTITLE3=Little Caesar - The Whole Of The Moon (Apollo 11 Stage One)
TTITLE4=Kid Frost - La Raza (Cantina Mix)
TTITLE5=Loose Ends - Don't Be A Fool (Edit)
TTITLE6=UB40 - Kingston Town (7" Version)
TTITLE7=Janet Jackson - Black Cat (Video Mix/ Short Solo)
TTITLE8=Paula Abdul - Knocked Out (7" Version)
TTITLE9=Sandra - (Life May Be) A Big Insanity (Radio Edit)
TTITLE10=Deborah Harry - Sweet and Low (Album Version)
TTITLE11=Seduction - Breakdown (Album Version)
TTITLE12=Jazzi P - Feel The Rhythm (7" Vocal)
TTITLE13=Human League, The - Heart Like a Wheel
EXTD=YEAR: 1990
EXTT0=
EXTT1=
EXTT2=
EXTT3=
EXTT4=
EXTT5=
EXTT6=
EXTT7=
EXTT8=
EXTT9=
EXTT10=
EXTT11=
EXTT12=
EXTT13=
PLAYORDER=
